# xmcd CD database file
#
# Track frame offsets:
#	150
#	19848
#	31671
#	44619
#	59817
#	84165
#	103263
#	112536
#	131034
#	144957
#
# Disc length: 1994 seconds
#
# Revision: 0
# Processed by: cddbd v1.5.2PL0 Copyright (c) Steve Scherf et al.
# Submitted via: CDex 1.70beta2
#
DISCID=7e07c80a
DTITLE=Melody GARDOT - Worrisome Heart
DYEAR=2008
DGENRE=Soft Jazz Vocals
TTITLE0=Melody GARDOT - Worrisome Heart
TTITLE1=Melody GARDOT - All that I need is love
TTITLE2=Melody GARDOT - Gone
TTITLE3=Melody GARDOT - Sweet memory
TTITLE4=Melody GARDOT - Some lessons
TTITLE5=Melody GARDOT - Quiet fire
TTITLE6=Melody GARDOT - One day
TTITLE7=Melody GARDOT - Love me like a river does
TTITLE8=Melody GARDOT - Goodnite
TTITLE9=Melody GARDOT - Twilight
EXTD=YEAR: 2008
EXTT0=
EXTT1=
EXTT2=
EXTT3=
EXTT4=
EXTT5=
EXTT6=
EXTT7=
EXTT8=
EXTT9=
PLAYORDER=
